name rise49.5252peak65.1548fall88.8305.mot
datacolumns 19
datarows 36
range 21.40657700000000 21.46493100000000
endheader
time	ground_force1_vx	ground_force1_vy	ground_force1_vz	ground_force1_px	ground_force1_py	ground_force1_pz	ground_force2_vx	ground_force2_vy	ground_force2_vz	ground_force2_px	ground_force2_py	ground_force2_pz	ground_torque1_x	ground_torque1_y	ground_torque1_z	ground_torque2_x	ground_torque2_y	ground_torque2_z	
21.40657700000000	57.94494500000000	772.52693799999997	49.72476600000000	0.35971600000000	0.00000000000000	0.10073600000000	0.00000000000000	0.00000000000000	0.00000000000000	0.00000000000000	0.00000000000000	0.00000000000000	0.00000000000000	22.67900500000000	0.00000000000000	0.00000000000000	0.00000000000000	0.00000000000000	
21.40824400000000	57.52966200000000	776.67891999999995	49.93873500000000	0.35893300000000	0.00000000000000	0.10074000000000	0.00000000000000	0.00000000000000	0.00000000000000	0.00000000000000	0.00000000000000	0.00000000000000	0.00000000000000	22.78898900000000	0.00000000000000	0.00000000000000	0.00000000000000	0.00000000000000	
21.40991000000000	57.11167500000000	780.67042900000001	50.14844400000000	0.35819200000000	0.00000000000000	0.10074100000000	0.00000000000000	0.00000000000000	0.00000000000000	0.00000000000000	0.00000000000000	0.00000000000000	0.00000000000000	22.89938400000000	0.00000000000000	0.00000000000000	0.00000000000000	0.00000000000000	
21.41157700000000	56.69103000000000	784.49673199999995	50.35344600000000	0.35749100000000	0.00000000000000	0.10073800000000	0.00000000000000	0.00000000000000	0.00000000000000	0.00000000000000	0.00000000000000	0.00000000000000	0.00000000000000	23.00989300000000	0.00000000000000	0.00000000000000	0.00000000000000	0.00000000000000	
21.41325000000000	56.26771400000000	788.15332400000000	50.55324600000000	0.35682900000000	0.00000000000000	0.10073300000000	0.00000000000000	0.00000000000000	0.00000000000000	0.00000000000000	0.00000000000000	0.00000000000000	0.00000000000000	23.12017900000000	0.00000000000000	0.00000000000000	0.00000000000000	0.00000000000000	
21.41491300000000	55.84166400000000	791.63594200000000	50.74730300000000	0.35620400000000	0.00000000000000	0.10072500000000	0.00000000000000	0.00000000000000	0.00000000000000	0.00000000000000	0.00000000000000	0.00000000000000	0.00000000000000	23.22987500000000	0.00000000000000	0.00000000000000	0.00000000000000	0.00000000000000	
21.41658300000000	55.41277100000000	794.94058900000005	50.93503800000000	0.35561500000000	0.00000000000000	0.10071400000000	0.00000000000000	0.00000000000000	0.00000000000000	0.00000000000000	0.00000000000000	0.00000000000000	0.00000000000000	23.33857800000000	0.00000000000000	0.00000000000000	0.00000000000000	0.00000000000000	
21.41824900000000	54.98088100000000	798.06355099999996	51.11583900000000	0.35505900000000	0.00000000000000	0.10070100000000	0.00000000000000	0.00000000000000	0.00000000000000	0.00000000000000	0.00000000000000	0.00000000000000	0.00000000000000	23.44586300000000	0.00000000000000	0.00000000000000	0.00000000000000	0.00000000000000	
21.41991600000000	54.54580300000000	801.00141599999995	51.28906600000000	0.35453500000000	0.00000000000000	0.10068500000000	0.00000000000000	0.00000000000000	0.00000000000000	0.00000000000000	0.00000000000000	0.00000000000000	0.00000000000000	23.55127800000000	0.00000000000000	0.00000000000000	0.00000000000000	0.00000000000000	
21.42158300000000	54.10731200000000	803.75108399999999	51.45406000000000	0.35404100000000	0.00000000000000	0.10066600000000	0.00000000000000	0.00000000000000	0.00000000000000	0.00000000000000	0.00000000000000	0.00000000000000	0.00000000000000	23.65435300000000	0.00000000000000	0.00000000000000	0.00000000000000	0.00000000000000	
21.42324900000000	53.66515100000000	806.30979000000002	51.61014800000000	0.35357400000000	0.00000000000000	0.10064500000000	0.00000000000000	0.00000000000000	0.00000000000000	0.00000000000000	0.00000000000000	0.00000000000000	0.00000000000000	23.75460400000000	0.00000000000000	0.00000000000000	0.00000000000000	0.00000000000000	
21.42491600000000	53.21904000000000	808.67511400000001	51.75664700000000	0.35313200000000	0.00000000000000	0.10062200000000	0.00000000000000	0.00000000000000	0.00000000000000	0.00000000000000	0.00000000000000	0.00000000000000	0.00000000000000	23.85153300000000	0.00000000000000	0.00000000000000	0.00000000000000	0.00000000000000	
21.42658000000000	52.76867900000000	810.84499100000005	51.89287500000000	0.35271400000000	0.00000000000000	0.10059600000000	0.00000000000000	0.00000000000000	0.00000000000000	0.00000000000000	0.00000000000000	0.00000000000000	0.00000000000000	23.94463800000000	0.00000000000000	0.00000000000000	0.00000000000000	0.00000000000000	
21.42824500000000	52.31375000000000	812.81772799999999	52.01815400000000	0.35231700000000	0.00000000000000	0.10056800000000	0.00000000000000	0.00000000000000	0.00000000000000	0.00000000000000	0.00000000000000	0.00000000000000	0.00000000000000	24.03341300000000	0.00000000000000	0.00000000000000	0.00000000000000	0.00000000000000	
21.42991100000000	51.85392400000000	814.59200799999996	52.13181800000000	0.35193900000000	0.00000000000000	0.10053700000000	0.00000000000000	0.00000000000000	0.00000000000000	0.00000000000000	0.00000000000000	0.00000000000000	0.00000000000000	24.11735300000000	0.00000000000000	0.00000000000000	0.00000000000000	0.00000000000000	
21.43157600000000	51.38886500000000	816.16690100000005	52.23321600000000	0.35157700000000	0.00000000000000	0.10050500000000	0.00000000000000	0.00000000000000	0.00000000000000	0.00000000000000	0.00000000000000	0.00000000000000	0.00000000000000	24.19595700000000	0.00000000000000	0.00000000000000	0.00000000000000	0.00000000000000	
21.43325200000000	50.91823300000000	817.54187300000001	52.32172300000000	0.35122800000000	0.00000000000000	0.10047100000000	0.00000000000000	0.00000000000000	0.00000000000000	0.00000000000000	0.00000000000000	0.00000000000000	0.00000000000000	24.26873500000000	0.00000000000000	0.00000000000000	0.00000000000000	0.00000000000000	
21.43491400000000	50.44168900000000	818.71678599999996	52.39674200000000	0.35089100000000	0.00000000000000	0.10043500000000	0.00000000000000	0.00000000000000	0.00000000000000	0.00000000000000	0.00000000000000	0.00000000000000	0.00000000000000	24.33520900000000	0.00000000000000	0.00000000000000	0.00000000000000	0.00000000000000	
21.43657800000000	49.95890200000000	819.69190600000002	52.45771000000000	0.35056300000000	0.00000000000000	0.10039700000000	0.00000000000000	0.00000000000000	0.00000000000000	0.00000000000000	0.00000000000000	0.00000000000000	0.00000000000000	24.39491800000000	0.00000000000000	0.00000000000000	0.00000000000000	0.00000000000000	
21.43824400000000	49.46954500000000	820.46790499999997	52.50410300000000	0.35024100000000	0.00000000000000	0.10035800000000	0.00000000000000	0.00000000000000	0.00000000000000	0.00000000000000	0.00000000000000	0.00000000000000	0.00000000000000	24.44742000000000	0.00000000000000	0.00000000000000	0.00000000000000	0.00000000000000	
21.43991400000000	48.97330700000000	821.04586099999995	52.53544200000000	0.34992200000000	0.00000000000000	0.10031700000000	0.00000000000000	0.00000000000000	0.00000000000000	0.00000000000000	0.00000000000000	0.00000000000000	0.00000000000000	24.49229800000000	0.00000000000000	0.00000000000000	0.00000000000000	0.00000000000000	
21.44158100000000	48.46989100000000	821.42725700000005	52.55129700000000	0.34960500000000	0.00000000000000	0.10027500000000	0.00000000000000	0.00000000000000	0.00000000000000	0.00000000000000	0.00000000000000	0.00000000000000	0.00000000000000	24.52916200000000	0.00000000000000	0.00000000000000	0.00000000000000	0.00000000000000	
21.44324700000000	47.95901900000000	821.61398199999996	52.55128900000000	0.34928600000000	0.00000000000000	0.10023100000000	0.00000000000000	0.00000000000000	0.00000000000000	0.00000000000000	0.00000000000000	0.00000000000000	0.00000000000000	24.55765000000000	0.00000000000000	0.00000000000000	0.00000000000000	0.00000000000000	
21.44491000000000	47.44043700000000	821.60832100000005	52.53509700000000	0.34896200000000	0.00000000000000	0.10018700000000	0.00000000000000	0.00000000000000	0.00000000000000	0.00000000000000	0.00000000000000	0.00000000000000	0.00000000000000	24.57743400000000	0.00000000000000	0.00000000000000	0.00000000000000	0.00000000000000	
21.44657700000000	46.91391200000000	821.41295800000000	52.50245700000000	0.34863300000000	0.00000000000000	0.10014100000000	0.00000000000000	0.00000000000000	0.00000000000000	0.00000000000000	0.00000000000000	0.00000000000000	0.00000000000000	24.58822100000000	0.00000000000000	0.00000000000000	0.00000000000000	0.00000000000000	
21.44824900000000	46.37924000000000	821.03096500000004	52.45316900000000	0.34829300000000	0.00000000000000	0.10009500000000	0.00000000000000	0.00000000000000	0.00000000000000	0.00000000000000	0.00000000000000	0.00000000000000	0.00000000000000	24.58975600000000	0.00000000000000	0.00000000000000	0.00000000000000	0.00000000000000	
21.44991400000000	45.83624700000000	820.46579299999996	52.38709600000000	0.34794200000000	0.00000000000000	0.10004900000000	0.00000000000000	0.00000000000000	0.00000000000000	0.00000000000000	0.00000000000000	0.00000000000000	0.00000000000000	24.58182100000000	0.00000000000000	0.00000000000000	0.00000000000000	0.00000000000000	
21.45158100000000	45.28478600000000	819.72126900000001	52.30416700000000	0.34757600000000	0.00000000000000	0.10000100000000	0.00000000000000	0.00000000000000	0.00000000000000	0.00000000000000	0.00000000000000	0.00000000000000	0.00000000000000	24.56424300000000	0.00000000000000	0.00000000000000	0.00000000000000	0.00000000000000	
21.45324400000000	44.72474700000000	818.80157799999995	52.20437700000000	0.34719300000000	0.00000000000000	0.09995400000000	0.00000000000000	0.00000000000000	0.00000000000000	0.00000000000000	0.00000000000000	0.00000000000000	0.00000000000000	24.53688900000000	0.00000000000000	0.00000000000000	0.00000000000000	0.00000000000000	
21.45491300000000	44.15605100000000	817.71125900000004	52.08778900000000	0.34679000000000	0.00000000000000	0.09990600000000	0.00000000000000	0.00000000000000	0.00000000000000	0.00000000000000	0.00000000000000	0.00000000000000	0.00000000000000	24.49967000000000	0.00000000000000	0.00000000000000	0.00000000000000	0.00000000000000	
21.45657900000000	43.57865500000000	816.45518600000003	51.95453600000000	0.34636500000000	0.00000000000000	0.09985900000000	0.00000000000000	0.00000000000000	0.00000000000000	0.00000000000000	0.00000000000000	0.00000000000000	0.00000000000000	24.45254300000000	0.00000000000000	0.00000000000000	0.00000000000000	0.00000000000000	
21.45824200000000	42.99255100000000	815.03855899999996	51.80481600000000	0.34591500000000	0.00000000000000	0.09981200000000	0.00000000000000	0.00000000000000	0.00000000000000	0.00000000000000	0.00000000000000	0.00000000000000	0.00000000000000	24.39550900000000	0.00000000000000	0.00000000000000	0.00000000000000	0.00000000000000	
21.45991000000000	42.39776700000000	813.46688500000005	51.63889600000000	0.34543800000000	0.00000000000000	0.09976500000000	0.00000000000000	0.00000000000000	0.00000000000000	0.00000000000000	0.00000000000000	0.00000000000000	0.00000000000000	24.32861500000000	0.00000000000000	0.00000000000000	0.00000000000000	0.00000000000000	
21.46158400000000	41.79436900000000	811.74596799999995	51.45710600000000	0.34493100000000	0.00000000000000	0.09971900000000	0.00000000000000	0.00000000000000	0.00000000000000	0.00000000000000	0.00000000000000	0.00000000000000	0.00000000000000	24.25195200000000	0.00000000000000	0.00000000000000	0.00000000000000	0.00000000000000	
21.46324900000000	41.18245900000000	809.88188700000001	51.25984300000000	0.34439200000000	0.00000000000000	0.09967300000000	0.00000000000000	0.00000000000000	0.00000000000000	0.00000000000000	0.00000000000000	0.00000000000000	0.00000000000000	24.16565900000000	0.00000000000000	0.00000000000000	0.00000000000000	0.00000000000000	
21.46493100000000	40.56217400000000	807.88098100000002	51.04756500000000	0.34382000000000	0.00000000000000	0.09962900000000	0.00000000000000	0.00000000000000	0.00000000000000	0.00000000000000	0.00000000000000	0.00000000000000	0.00000000000000	24.06991500000000	0.00000000000000	0.00000000000000	0.00000000000000	0.00000000000000	
